# xmcd
#
# Track frame offsets:
# 150
# 21947
# 46842
# 73232
# 99042
# 122170
# 144340
# 165842
#
# Disc length: 2485 seconds
#
#
# Revision: 0
# Processed by: cddbd v1.5.1PL0 Copyright (c) Steve Scherf et al.
# Submitted via: FreeRIP 2.90 
#
DISCID=5e09b308
DTITLE=Lura - Nha Vida
DYEAR=1996
DGENRE=Ethnic
TTITLE0=Nha Vida
TTITLE1=Rainha do Dia
TTITLE2=Quel Noti Nca Squeci
TTITLE3=Prêce di um Fidjo
TTITLE4=Insegura
TTITLE5=Dona Lua
TTITLE6=Curtir, Curtir
TTITLE7=Bailar (Para Ti)
EXTD=
EXTT0=
EXTT1=
EXTT2=
EXTT3=
EXTT4=
EXTT5=
EXTT6=
EXTT7=
PLAYORDER=
